<svg width="20" height="18" viewBox="0 0 20 18" fill="none" xmlns="http://www.w3.org/2000/svg">
<path d="M17.1053 7.68421V4.89474C17.1053 4.34245 16.6575 3.89474 16.1053 3.89474H9.94053C9.67531 3.89474 9.42096 3.78938 9.23342 3.60184L7.92447 2.29289C7.73694 2.10536 7.48258 2 7.21737 2H2C1.44772 2 1 2.44771 1 3V15.2105C1 15.7628 1.44772 16.2105 2 16.2105H3.04016C3.48306 16.2105 3.84211 15.8515 3.84211 15.4086V15.4086C3.84211 15.3124 3.8594 15.217 3.89317 15.127L6.44088 8.33309C6.58725 7.94279 6.96037 7.68421 7.37721 7.68421H17.6126C18.2951 7.68421 18.7771 8.35291 18.5613 9.00044L16.3858 15.5268C16.2497 15.9351 15.8676 16.2105 15.4371 16.2105H2.89474" stroke="#00B5CF" stroke-width="2" stroke-linecap="round" stroke-linejoin="round"/>
</svg>
