<svg width="27" height="28" viewBox="0 0 27 28" fill="none" xmlns="http://www.w3.org/2000/svg">
<path fill-rule="evenodd" clip-rule="evenodd" d="M15.8282 3.32815C15.2344 0.890616 11.7656 0.890616 11.1718 3.32815C11.0832 3.69443 10.9093 4.03461 10.6643 4.321C10.4194 4.60739 10.1103 4.8319 9.76214 4.97626C9.41403 5.12062 9.03674 5.18075 8.661 5.15176C8.28526 5.12277 7.92167 5.00548 7.59982 4.80943C5.456 3.50316 3.0028 5.95632 4.30909 8.1001C5.15286 9.4845 4.4044 11.2908 2.82935 11.6736C0.390215 12.2658 0.390215 15.7362 2.82935 16.3268C3.19574 16.4156 3.53598 16.5896 3.82237 16.8347C4.10876 17.0799 4.33321 17.3892 4.47744 17.7375C4.62166 18.0858 4.68159 18.4632 4.65233 18.839C4.62308 19.2149 4.50547 19.5785 4.30909 19.9003C3.0028 22.0441 5.456 24.4972 7.59982 23.191C7.92161 22.9946 8.28523 22.877 8.66107 22.8477C9.03692 22.8185 9.41436 22.8784 9.76266 23.0226C10.111 23.1668 10.4203 23.3913 10.6654 23.6777C10.9106 23.9641 11.0846 24.3043 11.1734 24.6707C11.7656 27.1098 15.236 27.1098 15.8266 24.6707C15.9157 24.3045 16.0899 23.9645 16.3351 23.6783C16.5803 23.3921 16.8896 23.1678 17.2378 23.0236C17.5859 22.8794 17.9632 22.8195 18.339 22.8485C18.7147 22.8776 19.0783 22.9949 19.4002 23.191C21.544 24.4972 23.9972 22.0441 22.6909 19.9003C22.4949 19.5784 22.3776 19.2148 22.3485 18.8391C22.3194 18.4634 22.3794 18.0861 22.5236 17.7379C22.6677 17.3897 22.8921 17.0804 23.1782 16.8352C23.4644 16.5901 23.8045 16.4159 24.1706 16.3268C26.6098 15.7346 26.6098 12.2642 24.1706 11.6736C23.8043 11.5848 23.464 11.4108 23.1776 11.1657C22.8912 10.9205 22.6668 10.6112 22.5226 10.2629C22.3783 9.91462 22.3184 9.53718 22.3477 9.16134C22.3769 8.78551 22.4945 8.42189 22.6909 8.1001C23.9972 5.95632 21.544 3.50316 19.4002 4.80943C19.0784 5.00581 18.7148 5.12341 18.3389 5.15267C17.9631 5.18192 17.5856 5.12199 17.2373 4.97777C16.889 4.83355 16.5797 4.60911 16.3346 4.32272C16.0894 4.03633 15.9154 3.69609 15.8266 3.32972L15.8282 3.32815Z" stroke="#D6D6D6" stroke-width="2"/>
<path d="M16.2778 14C16.2778 15.5341 15.0341 16.7778 13.5 16.7778C11.9659 16.7778 10.7222 15.5341 10.7222 14C10.7222 12.4659 11.9659 11.2222 13.5 11.2222C15.0341 11.2222 16.2778 12.4659 16.2778 14Z" stroke="#D6D6D6" stroke-width="2"/>
</svg>
