<svg width="48" height="48" viewBox="0 0 48 48" fill="none" xmlns="http://www.w3.org/2000/svg">
<circle cx="24" cy="24" r="24" fill="#00B5CF"/>
<path d="M24 36C30.6274 36 36 30.6274 36 24C36 17.3726 30.6274 12 24 12C17.3726 12 12 17.3726 12 24C12 30.6274 17.3726 36 24 36Z" stroke="white" stroke-width="2" stroke-linecap="round" stroke-linejoin="round"/>
<path d="M34.7706 29.2966L27.9848 25.123C27.8659 25.0499 27.7329 25.0024 27.5945 24.9838L24.7422 24.5993C24.528 24.5704 24.3102 24.6117 24.1215 24.717C23.9327 24.8223 23.7832 24.9859 23.6952 25.1833L21.9828 29.0256C21.9032 29.2042 21.8777 29.4024 21.9096 29.5954C21.9414 29.7884 22.0292 29.9678 22.162 30.1115L24.512 32.6533C24.6185 32.7685 24.6964 32.9072 24.7394 33.0582C24.7824 33.2091 24.7893 33.368 24.7595 33.5221L24.2808 35.9966" stroke="white" stroke-width="2" stroke-linecap="round" stroke-linejoin="round"/>
<path d="M16.1191 14.9507L15.0011 17.5944C14.9014 17.8301 14.8959 18.0951 14.9857 18.3348L16.422 22.1683C16.4809 22.3253 16.5782 22.4649 16.7051 22.5745C16.832 22.684 16.9844 22.7599 17.1483 22.7951L19.8271 23.3708C19.9757 23.4028 20.1151 23.4682 20.2347 23.5621C20.3542 23.656 20.4508 23.776 20.5171 23.9128L20.9928 24.8956C21.0746 25.0647 21.2025 25.2073 21.3617 25.3071C21.5209 25.4069 21.705 25.4599 21.8928 25.4599H23.5719" stroke="white" stroke-width="2" stroke-linecap="round" stroke-linejoin="round"/>
<path d="M27.0573 12.3936L28.224 14.4834C28.3343 14.6809 28.3744 14.91 28.3376 15.1333C28.3009 15.3565 28.1895 15.5607 28.0217 15.7125L24.6578 18.7547C24.6007 18.8063 24.5378 18.8512 24.4705 18.8884L22.9402 19.7334C22.7922 19.8152 22.6259 19.8581 22.4568 19.8581H19.7886C19.5919 19.8581 19.3995 19.9161 19.2356 20.0249C19.0716 20.1338 18.9435 20.2885 18.8671 20.4699L17.8262 22.9409" stroke="white" stroke-width="2" stroke-linecap="round" stroke-linejoin="round"/>
</svg>
