<svg width="20" height="22" viewBox="0 0 20 22" fill="none" xmlns="http://www.w3.org/2000/svg">
<path d="M3.81219 4.74616V3.05862C3.81219 2.43728 4.31588 1.93359 4.93721 1.93359H15.625C16.2463 1.93359 16.75 2.43728 16.75 3.05862V7.55872M1.0005 17.8161L1.00059 9.2619C1.00059 8.40508 1.00027 7.18468 1 6.30102C0.999808 5.67952 1.50357 5.17628 2.12507 5.17628H7.48602L10.0783 7.94538H17.875C18.4963 7.94538 19 8.44909 19 9.07044L18.9997 17.8163C18.9997 19.0589 17.9923 20.0663 16.7497 20.0663L3.25055 20.0662C2.00787 20.0662 1.00049 19.0588 1.0005 17.8161Z" stroke="#00B5CF" stroke-width="2" stroke-linecap="round" stroke-linejoin="round"/>
</svg>
